<?xml version="1.0" standalone="no"?>
<!DOCTYPE svg PUBLIC "-//W3C//DTD SVG 20010904//EN"
 "http://www.w3.org/TR/2001/REC-SVG-20010904/DTD/svg10.dtd">
<svg version="1.0" xmlns="http://www.w3.org/2000/svg"
 width="2048.000000pt" height="2048.000000pt" viewBox="0 0 2048.000000 2048.000000"
 preserveAspectRatio="xMidYMid meet">
<metadata>
Created by potrace 1.14, written by Peter Selinger 2001-2017
</metadata>
<g transform="translate(0.000000,2048.000000) scale(0.100000,-0.100000)"
fill="#000000" stroke="none">
<path d="M16178 18775 c-2 -2 -29 -5 -60 -9 -142 -15 -302 -78 -418 -165 -99
-75 -715 -691 -990 -990 -52 -57 -108 -119 -125 -136 -16 -18 -59 -65 -95
-105 -64 -72 -79 -89 -123 -140 -12 -14 -49 -57 -83 -95 -33 -39 -70 -81 -81
-95 -26 -31 -98 -117 -127 -150 -11 -14 -39 -47 -61 -75 -22 -27 -42 -52 -45
-55 -27 -27 -239 -299 -386 -495 -214 -285 -503 -702 -629 -907 -63 -103 -298
-494 -317 -528 -81 -143 -168 -306 -306 -575 -43 -84 -173 -359 -177 -375 0
-3 -6 -14 -12 -25 -37 -69 -217 -507 -303 -739 -115 -312 -248 -738 -325
-1041 -20 -77 -38 -147 -40 -155 -32 -121 -145 -659 -161 -770 -6 -40 -9 -58
-23 -138 -6 -31 -13 -77 -16 -102 -4 -25 -12 -85 -20 -135 -8 -49 -17 -114
-20 -144 -4 -30 -8 -61 -10 -70 -1 -9 -6 -45 -10 -81 -3 -36 -8 -76 -10 -90
-4 -28 -12 -103 -20 -195 -3 -33 -8 -76 -10 -95 -2 -19 -7 -69 -10 -110 -3
-41 -8 -91 -10 -110 -2 -19 -7 -75 -10 -125 -3 -49 -8 -121 -10 -160 -3 -38
-7 -126 -11 -195 -3 -69 -7 -150 -9 -180 -18 -271 -27 -1580 -12 -1675 11 -69
60 -212 93 -271 120 -216 314 -363 559 -424 l90 -23 1755 -1 1755 -1 3 -426 2
-425 -49 -3 c-28 -1 -60 -4 -73 -6 -13 -3 -39 -8 -58 -11 -74 -14 -204 -68
-278 -117 -199 -129 -327 -315 -378 -547 -2 -8 -7 -37 -10 -65 -9 -64 -9
-2703 -1 -2770 43 -331 269 -601 593 -709 115 -38 174 -41 724 -40 493 1 529
4 655 46 139 48 240 112 347 223 118 121 203 299 226 471 10 72 8 15576 -2
15619 -63 284 -224 499 -462 618 -47 24 -162 65 -202 72 -53 9 -209 24 -214
20z m-818 -6628 l0 -3613 -1279 0 -1278 0 3 145 c3 143 14 471 19 581 7 134
16 289 19 330 3 25 7 86 11 135 3 50 8 101 10 115 2 14 6 64 10 112 3 49 8 96
9 105 3 17 10 76 22 183 3 25 7 59 9 75 21 167 32 245 40 285 3 14 7 45 10 70
3 25 15 97 26 160 23 128 22 126 43 230 8 41 17 86 20 100 2 14 18 88 36 165
302 1353 890 2607 1798 3835 97 131 347 455 375 485 10 11 35 41 55 68 20 26
37 47 39 47 2 0 3 -1626 3 -3613z"/>
<path d="M4110 17905 c-187 -41 -337 -122 -456 -247 -107 -112 -169 -223 -211
-376 l-27 -97 0 -1430 c0 -786 3 -1466 8 -1510 4 -44 8 -87 8 -95 0 -16 35
-250 42 -290 110 -552 335 -1039 680 -1475 162 -205 356 -396 576 -571 82 -65
99 -77 210 -151 286 -192 628 -348 980 -447 l55 -16 -1 -4351 c0 -2527 3
-4377 9 -4413 12 -86 61 -228 103 -300 231 -395 718 -540 1124 -336 198 100
340 260 420 474 52 138 49 -130 50 4560 0 2397 2 4362 5 4366 2 4 19 10 37 14
53 10 262 77 273 87 5 5 18 9 28 9 10 0 31 6 45 14 15 8 68 31 117 52 257 108
544 283 795 483 115 91 370 344 467 461 346 418 596 924 707 1425 8 39 18 86
21 105 3 19 10 53 15 75 5 22 12 66 15 98 4 32 8 68 11 80 2 12 8 60 12 107 9
107 9 2927 0 2995 -43 316 -295 593 -623 687 -103 29 -313 32 -415 5 -192 -51
-354 -153 -468 -297 -65 -81 -135 -221 -163 -325 l-22 -80 -2 -1400 c-1 -770
-5 -1420 -8 -1445 -4 -25 -9 -67 -13 -95 -10 -84 -54 -255 -90 -350 -130 -337
-355 -619 -654 -819 l-85 -57 -2 253 c-2 139 -4 1081 -6 2093 l-2 1840 -23 75
c-99 322 -343 549 -658 613 -156 32 -378 7 -511 -58 -29 -14 -55 -25 -58 -25
-14 0 -119 -75 -169 -121 -134 -122 -219 -270 -267 -464 -10 -39 -13 -506 -15
-2120 -1 -1138 -3 -2074 -3 -2078 -1 -11 -103 55 -196 128 -146 115 -268 246
-367 395 -58 87 -134 228 -158 290 -7 19 -19 51 -26 70 -21 53 -60 198 -73
265 -6 33 -14 74 -18 90 -4 17 -8 433 -10 925 -7 2068 -6 2006 -32 2090 -97
321 -337 545 -662 616 -59 13 -257 12 -319 -1z"/>
</g>
</svg>
